# Blender 4.2.3 LTS
# www.blender.org
mtllib 4D.mtl
o Cube
v 1.000000 1.000000 -1.000000
v 1.000000 -1.000000 -1.000000
v 1.000000 1.000000 1.000000
v 1.000000 -1.000000 1.000000
v -1.000000 1.000000 -1.000000
v -1.000000 -1.000000 -1.000000
v -1.000000 1.000000 1.000000
v -1.000000 -1.000000 1.000000
vn -0.0000 1.0000 -0.0000
vn -0.0000 -1.0000 -0.0000
vn -1.0000 -0.0000 -0.0000
vn -0.0000 -0.0000 1.0000
vn 1.0000 -0.0000 -0.0000
vn -0.0000 -0.0000 -1.0000
vt 1.000000 1.000000
vt 0.000000 1.000000
vt 0.000000 0.000000
vt 1.000000 -0.000000
s 0
usemtl face1
f 1/1/1 5/2/1 7/3/1 3/4/1
usemtl face2
f 6/4/2 2/1/2 4/2/2 8/3/2
usemtl face3
f 8/1/3 7/2/3 5/3/3 6/4/3
usemtl face4
f 4/3/4 3/4/4 7/1/4 8/2/4
usemtl face5
f 2/3/5 1/4/5 3/1/5 4/2/5
usemtl face6.001
f 6/1/6 5/2/6 1/3/6 2/4/6
