# Blender 4.2.3 LTS
# www.blender.org
mtllib 4D.mtl
o Cube
v 1.000000 1.000000 -1.000000
v 1.000000 -1.000000 -1.000000
v 1.000000 1.000000 1.000000
v 1.000000 -1.000000 1.000000
v -1.000000 1.000000 -1.000000
v -1.000000 -1.000000 -1.000000
v -1.000000 1.000000 1.000000
v -1.000000 -1.000000 1.000000
vn -0.0000 1.0000 -0.0000
vn -0.0000 -0.0000 1.0000
vn -1.0000 -0.0000 -0.0000
vn -0.0000 -1.0000 -0.0000
vn 1.0000 -0.0000 -0.0000
vn -0.0000 -0.0000 -1.0000
vt 1.000000 1.000000
vt 0.000000 1.000000
vt 0.000000 0.000000
vt 1.000000 -0.000000
vt -0.000000 0.000000
vt 1.000000 -0.000000
vt 0.000000 1.000000
vt 1.000000 1.000000
vt 0.000000 1.000000
vt 0.000000 0.000000
vt 1.000000 0.000000
vt 1.000000 0.000000
vt 1.000000 1.000000
vt 0.000000 1.000000
vt 0.000000 0.000000
s 0
usemtl face1
f 1/1/1 5/2/1 7/3/1 3/4/1
usemtl face2
f 6/12/4 2/13/4 4/14/4 8/15/4
usemtl face3
f 8/8/3 7/9/3 5/10/3 6/11/3
usemtl face4
f 4/5/2 3/6/2 7/1/2 8/7/2
usemtl face5
f 2/5/5 1/6/5 3/1/5 4/7/5
usemtl face6.001
f 6/8/6 5/9/6 1/10/6 2/11/6
